<svg height="100" viewBox="0 0 512 512" width="150" xmlns="http://www.w3.org/2000/svg"><g>
<g fill="#DC143C">
<path d="m128 476a19.994 19.994 0 0 0 20 20h216a19.994 19.994 0 0 0 20-20v-92h-7.21a175.982 175.982 0 0 1 -241.58 0h-7.21z"/>
<path d="m384 135.21v-99.21a19.994 19.994 0 0 0 -20-20h-68l-9 32h-63l-8-32h-68a19.994 19.994 0 0 0 -20 20v99.21a175.984 175.984 0 0 1 256 0z"/><path d="m176 192h104v80h-104z"/><path d="m192 328h80v24h-80z"/></g>
<g fill="#DC143C"><path d="m288 464h-64a8 8 0 0 0 0 16h64a8 8 0 0 0 0-16z"/><path d="m208 224h32a8 8 0 0 0 0-16h-32a8 8 0 0 0 0 16z"/><path d="m208 256h32a8 8 0 0 0 0-16h-32a8 8 0 0 0 0 16z"/><path d="m392 132.19v-96.19a28.031 28.031 0 0 0 -28-28h-216a28.031 28.031 0 0 0 -28 28v96.19a183.676 183.676 0 0 0 0 247.62v96.19a28.031 28.031 0 0 0 28 28h216a28.031 28.031 0 0 0 28-28v-96.19a183.676 183.676 0 0 0 0-247.62zm-106.56-108.19-4.5 16h-50.69l-4-16zm-149.44 12a12.01 12.01 0 0 1 12-12h61.75l6.49 25.94a8 8 0 0 0 7.76 6.06h63a8 8 0 0 0 7.7-5.83l7.36-26.17h61.94a12.01 12.01 0 0 1 12 12v80.63a183.641 183.641 0 0 0 -240 0zm240 440a12.01 12.01 0 0 1 -12 12h-216a12.01 12.01 0 0 1 -12-12v-80.63a183.641 183.641 0 0 0 240 0zm-120-52c-92.64 0-168-75.36-168-168s75.36-168 168-168 168 75.36 168 168-75.36 168-168 168z"/><path d="m364.49 153.38a8.023 8.023 0 0 0 -7.46-.81l-78.57 31.43h-102.46a8 8 0 0 0 -8 8v16h-16a8 8 0 0 0 -8 8v32a8 8 0 0 0 8 8h16v16a8 8 0 0 0 8 8h9.97l11.42 40h-5.39a8 8 0 0 0 -8 8v24a8 8 0 0 0 8 8h80a8 8 0 0 0 8-8v-24a8 8 0 0 0 -8-8h-25.97l-11.42-40h43.85l78.57 31.43a8 8 0 0 0 10.97-7.43v-144a8 8 0 0 0 -3.51-6.62zm-196.49 86.62h-8v-16h8zm96 96v8h-64v-8zm-61.39-56h15.36l11.42 40h-15.36zm69.39-16h-88v-64h88zm80 28.18-64-25.6v-69.16l64-25.6z"/>
</g>
</g>
</svg>